<svg width="16" height="16" viewBox="0 0 16 16" fill="none" xmlns="http://www.w3.org/2000/svg">
<path d="M14.7891 7.89022L8.35317 1.45897C8.30683 1.41254 8.25179 1.3757 8.1912 1.35057C8.1306 1.32544 8.06565 1.3125 8.00005 1.3125C7.93445 1.3125 7.86949 1.32544 7.8089 1.35057C7.74831 1.3757 7.69326 1.41254 7.64692 1.45897L1.21099 7.89022C1.02349 8.07772 0.917236 8.33241 0.917236 8.59803C0.917236 9.1496 1.36567 9.59803 1.91724 9.59803H2.59536V14.1871C2.59536 14.4637 2.8188 14.6871 3.09536 14.6871H7.00005V11.1871H8.75005V14.6871H12.9047C13.1813 14.6871 13.4047 14.4637 13.4047 14.1871V9.59803H14.0829C14.3485 9.59803 14.6032 9.49335 14.7907 9.30428C15.1797 8.91366 15.1797 8.28085 14.7891 7.89022Z" fill="black"/>
</svg>
