<svg width="16" height="14" viewBox="0 0 16 14" fill="none" xmlns="http://www.w3.org/2000/svg">
<path d="M14.7891 6.89022L8.35317 0.458972C8.30683 0.41254 8.25179 0.375704 8.1912 0.35057C8.1306 0.325437 8.06565 0.3125 8.00005 0.3125C7.93445 0.3125 7.86949 0.325437 7.8089 0.35057C7.74831 0.375704 7.69326 0.41254 7.64692 0.458972L1.21099 6.89022C1.02349 7.07772 0.917236 7.33241 0.917236 7.59803C0.917236 8.1496 1.36567 8.59803 1.91724 8.59803H2.59536V13.1871C2.59536 13.4637 2.8188 13.6871 3.09536 13.6871H7.00005V10.1871H8.75005V13.6871H12.9047C13.1813 13.6871 13.4047 13.4637 13.4047 13.1871V8.59803H14.0829C14.3485 8.59803 14.6032 8.49335 14.7907 8.30428C15.1797 7.91366 15.1797 7.28085 14.7891 6.89022Z" fill="black"/>
</svg>
