<svg width="16" height="16" viewBox="0 0 16 16" fill="none" xmlns="http://www.w3.org/2000/svg">
<path d="M13.8422 8.33868C14.1047 7.99181 14.25 7.56681 14.25 7.12462C14.25 6.42306 13.8578 5.759 13.2266 5.38868C13.0641 5.29336 12.879 5.2432 12.6906 5.24337H8.94375L9.0375 3.32306C9.05938 2.859 8.89531 2.41837 8.57656 2.08243C8.42013 1.91685 8.23141 1.78511 8.02206 1.69535C7.8127 1.60559 7.58716 1.55971 7.35938 1.56056C6.54688 1.56056 5.82813 2.10743 5.6125 2.89025L4.27031 7.74962H2.25C1.97344 7.74962 1.75 7.97306 1.75 8.24962V13.9371C1.75 14.2137 1.97344 14.4371 2.25 14.4371H11.6453C11.7891 14.4371 11.9297 14.409 12.0594 14.3527C12.8031 14.0356 13.2828 13.309 13.2828 12.5027C13.2828 12.3059 13.2547 12.1121 13.1984 11.9246C13.4609 11.5777 13.6062 11.1527 13.6062 10.7106C13.6062 10.5137 13.5781 10.3199 13.5219 10.1324C13.7844 9.78556 13.9297 9.36056 13.9297 8.91837C13.9266 8.7215 13.8984 8.52618 13.8422 8.33868ZM2.875 13.3121V8.87462H4.14062V13.3121H2.875ZM12.8188 7.7965L12.4766 8.09337L12.6938 8.49025C12.7653 8.62098 12.8024 8.76778 12.8016 8.91681C12.8016 9.17462 12.6891 9.41993 12.4953 9.58868L12.1531 9.88556L12.3703 10.2824C12.4419 10.4132 12.479 10.56 12.4781 10.709C12.4781 10.9668 12.3656 11.2121 12.1719 11.3809L11.8297 11.6777L12.0469 12.0746C12.1184 12.2054 12.1555 12.3521 12.1547 12.5012C12.1547 12.8512 11.9484 13.1668 11.6297 13.3106H5.14062V8.82462L6.69531 3.19181C6.7354 3.04743 6.82146 2.92006 6.94044 2.82899C7.05943 2.73792 7.20485 2.68811 7.35469 2.68712C7.47344 2.68712 7.59062 2.7215 7.68437 2.79181C7.83906 2.90743 7.92187 3.08243 7.9125 3.26837L7.7625 6.36837H12.675C12.9531 6.53868 13.125 6.82618 13.125 7.12462C13.125 7.38243 13.0125 7.62618 12.8188 7.7965Z" fill="black"/>
</svg>
