<svg width="128" height="29" viewBox="0 0 128 29" fill="none" xmlns="http://www.w3.org/2000/svg">
<g clip-path="url(#clip0_705_150)">
<path d="M39.9725 4.4825C39.738 3.61602 39.2807 2.82609 38.6459 2.19139C38.0112 1.55669 37.2212 1.09938 36.3547 0.865C33.1825 0 20.4165 0 20.4165 0C20.4165 0 7.64997 0.02625 4.47822 0.89125C3.61178 1.12567 2.82187 1.583 2.18717 2.2177C1.55247 2.85239 1.09514 3.6423 0.860723 4.50875C-0.0987775 10.145 -0.471027 18.7327 0.886973 24.1432C1.12139 25.0097 1.57872 25.7996 2.21342 26.4343C2.84812 27.069 3.63803 27.5263 4.50447 27.7607C7.67647 28.6257 20.4427 28.6257 20.4427 28.6257C20.4427 28.6257 33.209 28.6257 36.381 27.7607C37.2474 27.5263 38.0373 27.069 38.672 26.4343C39.3067 25.7996 39.7641 25.0097 39.9985 24.1432C41.0102 18.4992 41.3222 9.91675 39.9722 4.48275" fill="#FF0000"/>
<path d="M16.3533 20.4479L26.9438 14.3139L16.3533 8.17969V20.4479Z" fill="white"/>
<path d="M122.809 8.3097C124.199 8.3097 125.247 8.5717 125.981 9.0697C126.715 9.56787 127.239 10.3544 127.554 11.4292C127.869 12.504 128 13.9717 128 15.8592V18.9265H121.263V19.87L121.368 22.4652C121.446 23.042 121.577 23.4615 121.787 23.7235C121.997 23.9857 122.337 24.1167 122.783 24.1167C123.386 24.1167 123.806 23.881 124.015 23.4092C124.251 22.9372 124.356 22.1507 124.382 21.076L127.869 21.2857C127.895 21.443 127.895 21.6527 127.895 21.9147C127.895 23.5662 127.449 24.7985 126.532 25.611C125.614 26.4235 124.356 26.843 122.704 26.843C120.712 26.843 119.323 26.214 118.536 24.982C117.75 23.7497 117.331 21.8097 117.331 19.2147V16.0427C117.42 11.5865 118.203 8.3227 122.809 8.3097ZM74.3393 8.65045V21.7837C74.3393 22.5702 74.4178 23.147 74.6013 23.4877C74.9735 24.2165 75.9383 24.0302 76.4625 23.6712C76.7651 23.4665 77.009 23.1865 77.1703 22.8587V8.6502H81.181V26.5545H78.0353L77.6945 24.3525H77.616C76.751 26.004 75.4663 26.8427 73.7625 26.8427C71.14 26.8362 70.4983 24.9467 70.3455 23.0277L70.3355 22.8925C70.3166 22.6018 70.3055 22.3107 70.3023 22.0195V8.65045H74.3393ZM95.0223 8.65045V21.7837C95.0223 22.5702 95.1008 23.147 95.2843 23.4877C95.6568 24.2165 96.6213 24.0302 97.1455 23.6712C97.4481 23.4665 97.692 23.1865 97.8533 22.8587V8.6502H101.864V26.5545H98.7183L98.3775 24.3525H98.299C97.434 26.004 96.1493 26.8427 94.4455 26.8427C91.823 26.8362 91.1813 24.9467 91.0285 23.0277L91.0185 22.8925C90.9996 22.6018 90.9885 22.3107 90.9853 22.0195V8.65045H95.0223ZM62.7 8.3097C64.0108 8.3097 65.0855 8.5717 65.872 9.1222C66.6583 9.6727 67.2613 10.5117 67.6283 11.665C67.9953 12.8185 68.1788 14.365 68.1788 16.2787V18.8737C68.1788 20.7875 67.9953 22.308 67.6283 23.4612C67.2613 24.615 66.6845 25.4537 65.872 26.0042C65.0595 26.5285 63.9583 26.8167 62.5953 26.8167C61.1795 26.843 60.0785 26.5547 59.266 26.0305C58.4535 25.48 57.8765 24.641 57.536 23.4877C57.195 22.3342 57.0378 20.8137 57.0378 18.9002V16.3047C57.0378 14.391 57.2213 12.8182 57.6145 11.6647C58.0078 10.4852 58.6105 9.6462 59.4495 9.1222C60.2883 8.5977 61.363 8.30945 62.7 8.30945M108.156 1.12695V10.564H108.182C108.549 9.88245 109.021 9.33195 109.676 8.91245C110.288 8.50109 111.009 8.28205 111.747 8.28345C112.717 8.28345 113.451 8.54545 114.001 9.04345C114.552 9.56795 114.945 10.3805 115.181 11.5077C115.41 12.5997 115.54 14.11 115.548 16.0145L115.548 16.2002V19.0312C115.548 21.6787 115.207 23.645 114.578 24.9032C113.923 26.1615 112.927 26.7907 111.563 26.7907C110.803 26.7907 110.122 26.6072 109.493 26.2665C108.936 25.9421 108.475 25.4772 108.155 24.9185L108.103 24.8245H108.025L107.605 26.5285H104.276V1.1272L108.156 1.12695ZM92.1123 2.04445V5.2947H88.1278V26.5545H84.1958V5.29495H80.185V2.0447L92.1123 2.04445ZM48.885 2.04445L48.8875 2.05445C48.9258 2.2247 49.4558 4.58095 50.0388 7.3262L50.0848 7.5437L50.1543 7.87245L50.2008 8.0932L50.224 8.20395L50.2705 8.42595L50.2938 8.5372L50.34 8.75995L50.4075 9.0857C50.8013 10.9867 51.177 12.8932 51.4018 14.2602H51.5068C51.722 13.034 52.0348 11.4647 52.3683 9.86245L52.4558 9.44395C52.4996 9.23429 52.5438 9.02495 52.5883 8.81595L52.6568 8.4917C53.1096 6.36841 53.5761 4.24804 54.056 2.1307L54.0635 2.09695L54.0755 2.04445H58.0863L53.4463 18.5857V26.5285H49.488V18.6117H49.4618L44.8743 2.0442L48.885 2.04445ZM62.6213 11.0882C62.0708 11.0882 61.7038 11.3767 61.468 11.9797C61.2323 12.5827 61.1273 13.5 61.1273 14.7847V20.3682C61.1273 21.679 61.232 22.6487 61.4418 23.2257C61.6516 23.8024 62.0448 24.0907 62.6213 24.0907C63.1718 24.0907 63.565 23.8024 63.801 23.2257C64.037 22.6487 64.1418 21.679 64.1418 20.3682V14.7845C64.1418 13.5 64.0368 12.5562 63.801 11.9795C63.565 11.3767 63.1718 11.0882 62.6213 11.0882ZM108.863 11.6127C108.544 11.9077 108.317 12.2715 108.181 12.7262L108.156 12.8185V22.9895C108.481 23.54 108.942 23.907 109.755 23.9332C110.174 23.9332 110.515 23.776 110.777 23.4615C111.039 23.147 111.222 22.6226 111.327 21.8885C111.428 21.184 111.481 20.2136 111.485 18.9775V16.4885C111.485 15.073 111.432 13.9982 111.354 13.238C111.249 12.4777 111.118 11.9272 110.882 11.6127C110.426 10.9572 109.44 10.9652 108.863 11.6127ZM122.731 11.0097C122.285 11.0359 121.97 11.167 121.787 11.403C121.577 11.665 121.446 12.0582 121.368 12.635C121.29 13.2 121.264 15.175 121.263 15.254V16.541H124.199V15.406V15.4277C124.197 15.8245 124.189 15.1975 124.171 14.4277L124.168 14.3242C124.152 13.6477 124.128 12.8935 124.094 12.635C124.015 12.032 123.884 11.6125 123.674 11.3767C123.465 11.1407 123.15 11.0097 122.731 11.0097" fill="#282828"/>
</g>
<defs>
<clipPath id="clip0_705_150">
<rect width="128" height="29" fill="white"/>
</clipPath>
</defs>
</svg>
