<svg width="24" height="24" viewBox="0 0 24 24" fill="none" xmlns="http://www.w3.org/2000/svg">
<path d="M9 16H11V13H14V11H11V8H9V11H6V13H9V16ZM4 20C3.45 20 2.97933 19.8043 2.588 19.413C2.19667 19.0217 2.00067 18.5507 2 18V6C2 5.45 2.196 4.97933 2.588 4.588C2.98 4.19667 3.45067 4.00067 4 4H16C16.55 4 17.021 4.196 17.413 4.588C17.805 4.98 18.0007 5.45067 18 6V10.5L22 6.5V17.5L18 13.5V18C18 18.55 17.8043 19.021 17.413 19.413C17.0217 19.805 16.5507 20.0007 16 20H4ZM4 18H16V6H4V18Z" fill="black"/>
</svg>
