<svg width="24" height="24" viewBox="0 0 24 24" fill="none" xmlns="http://www.w3.org/2000/svg">
<path d="M4.616 20C4.15533 20 3.771 19.846 3.463 19.538C3.155 19.23 3.00067 18.8453 3 18.384V5.616C3 5.15533 3.15433 4.771 3.463 4.463C3.77167 4.155 4.15567 4.00067 4.615 4H19.385C19.845 4 20.229 4.15433 20.537 4.463C20.845 4.77167 20.9993 5.156 21 5.616V18.385C21 18.845 20.8457 19.2293 20.537 19.538C20.2283 19.8467 19.8443 20.0007 19.385 20H4.616ZM4.616 19H19.385C19.5383 19 19.6793 18.936 19.808 18.808C19.9367 18.68 20.0007 18.5387 20 18.384V5.616C20 5.462 19.936 5.32067 19.808 5.192C19.68 5.06333 19.539 4.99933 19.385 5H4.615C4.46167 5 4.32067 5.064 4.192 5.192C4.06333 5.32 3.99933 5.46133 4 5.616V18.385C4 18.5383 4.064 18.6793 4.192 18.808C4.32 18.9367 4.461 19.0007 4.615 19M6.769 16.23H17.231V15.23H6.769V16.23ZM6.769 12.5H10.154V7.77H6.769V12.5ZM12.539 12.5H17.231V11.5H12.538L12.539 12.5ZM12.539 8.77H17.231V7.77H12.538L12.539 8.77Z" fill="black"/>
</svg>
