<svg width="24" height="24" viewBox="0 0 24 24" fill="none" xmlns="http://www.w3.org/2000/svg">
<path d="M12 13C11.436 13 10.9617 12.8077 10.577 12.423C10.1923 12.0383 10 11.564 10 11V5C10 4.436 10.1923 3.96167 10.577 3.577C10.9617 3.19233 11.436 3 12 3C12.564 3 13.0383 3.19233 13.423 3.577C13.8077 3.96167 14 4.436 14 5V11C14 11.564 13.8077 12.0383 13.423 12.423C13.0383 12.8077 12.564 13 12 13ZM11.5 20.5V16.983C9.93333 16.839 8.625 16.1983 7.575 15.061C6.525 13.9237 6 12.57 6 11H7C7 12.3833 7.48767 13.5627 8.463 14.538C9.43833 15.5133 10.6173 16.0007 12 16C13.3827 15.9993 14.562 15.5117 15.538 14.537C16.514 13.5623 17.0013 12.3833 17 11H18C18 12.5707 17.475 13.9247 16.425 15.062C15.375 16.1993 14.0667 16.8393 12.5 16.982V20.5H11.5Z" fill="black"/>
</svg>
