<svg width="24" height="24" viewBox="0 0 24 24" fill="none" xmlns="http://www.w3.org/2000/svg">
<path d="M12.834 3.18616C13.6666 2.71199 14.6531 2.58659 15.5779 2.83733C16.5027 3.08808 17.2907 3.69459 17.7698 4.52441C18.2489 5.35424 18.3802 6.33993 18.135 7.26622C17.8897 8.19251 17.2879 8.98412 16.461 9.46816L15.721 9.89416C16.5298 9.86617 17.3247 10.1096 17.9792 10.5856C18.6337 11.0616 19.1101 11.7429 19.3326 12.521C19.5551 13.2991 19.511 14.1292 19.2071 14.8793C18.9033 15.6294 18.3573 16.2563 17.656 16.6602L10.636 20.7132C9.80319 21.1941 8.81346 21.3246 7.8845 21.0758C6.95554 20.827 6.16344 20.2194 5.68247 19.3867C5.2015 18.5539 5.07105 17.5641 5.31982 16.6352C5.56859 15.7062 6.1762 14.9141 7.00897 14.4332L7.74798 14.0052C6.94002 14.0316 6.1464 13.7873 5.49312 13.3112C4.83984 12.835 4.36435 12.1543 4.14215 11.3771C3.91995 10.5998 3.96377 9.7706 4.26666 9.02111C4.56955 8.27161 5.11415 7.64479 5.81397 7.24015L12.834 3.18616Z" stroke="black" stroke-width="1.5" stroke-linejoin="round"/>
<path d="M13.992 11.0154L11.2 9.27041C10.46 8.80741 9.5 9.34041 9.5 10.2124V13.7024C9.5 14.5754 10.46 15.1074 11.2 14.6454L13.992 12.8994C14.152 12.7997 14.2839 12.6609 14.3754 12.4961C14.4669 12.3313 14.5149 12.1459 14.5149 11.9574C14.5149 11.7689 14.4669 11.5835 14.3754 11.4187C14.2839 11.2539 14.152 11.1151 13.992 11.0154Z" fill="black"/>
</svg>
