<svg width="14" height="14" viewBox="0 0 14 14" fill="none" xmlns="http://www.w3.org/2000/svg">
<path d="M4.579 6.12519V8.91119M3.186 7.51819H5.972M0.5 6.99919C0.5 8.23059 0.989172 9.41156 1.8599 10.2823C2.73063 11.153 3.9116 11.6422 5.143 11.6422H9.786C10.3094 11.641 10.8266 11.5292 11.3037 11.3141C11.7809 11.0991 12.2071 10.7856 12.5547 10.3942C12.9022 10.0029 13.163 9.54249 13.3202 9.04327C13.4773 8.54404 13.5271 8.01725 13.4664 7.49741C13.4057 6.97757 13.2358 6.47643 12.9679 6.02685C12.7 5.57726 12.34 5.18938 11.9117 4.88863C11.4834 4.58789 10.9963 4.38106 10.4825 4.28172C9.96861 4.18238 9.43956 4.19276 8.93 4.31219C8.36007 3.50873 7.54938 2.90736 6.61513 2.59503C5.68089 2.2827 4.67152 2.2756 3.73297 2.57475C2.79443 2.87391 1.97535 3.46381 1.39417 4.25917C0.812998 5.05453 0.499846 6.01412 0.5 6.99919Z" stroke="black" stroke-linecap="round" stroke-linejoin="round"/>
<path d="M9.1311 7.85169C9.09795 7.85169 9.06616 7.83852 9.04272 7.81508C9.01927 7.79163 9.0061 7.75984 9.0061 7.72669C9.0061 7.69354 9.01927 7.66174 9.04272 7.6383C9.06616 7.61486 9.09795 7.60169 9.1311 7.60169M9.1311 7.85169C9.16426 7.85169 9.19605 7.83852 9.21949 7.81508C9.24293 7.79163 9.2561 7.75984 9.2561 7.72669C9.2561 7.69354 9.24293 7.66174 9.21949 7.6383C9.19605 7.61486 9.16426 7.60169 9.1311 7.60169M11.2701 7.85169C11.237 7.85169 11.2052 7.83852 11.1817 7.81508C11.1583 7.79163 11.1451 7.75984 11.1451 7.72669C11.1451 7.69354 11.1583 7.66174 11.1817 7.6383C11.2052 7.61486 11.237 7.60169 11.2701 7.60169M11.2701 7.85169C11.3033 7.85169 11.335 7.83852 11.3585 7.81508C11.3819 7.79163 11.3951 7.75984 11.3951 7.72669C11.3951 7.69354 11.3819 7.66174 11.3585 7.6383C11.335 7.61486 11.3033 7.60169 11.2701 7.60169M10.2251 6.80469C10.192 6.80469 10.1602 6.79152 10.1367 6.76808C10.1133 6.74463 10.1001 6.71284 10.1001 6.67969C10.1001 6.64654 10.1133 6.61474 10.1367 6.5913C10.1602 6.56786 10.192 6.55469 10.2251 6.55469M10.2251 6.80469C10.2583 6.80469 10.2901 6.79152 10.3135 6.76808C10.3369 6.74463 10.3501 6.71284 10.3501 6.67969C10.3501 6.64654 10.3369 6.61474 10.3135 6.5913C10.2901 6.56786 10.2583 6.55469 10.2251 6.55469M10.2251 8.94269C10.192 8.94269 10.1602 8.92952 10.1367 8.90608C10.1133 8.88263 10.1001 8.85084 10.1001 8.81769C10.1001 8.78454 10.1133 8.75274 10.1367 8.7293C10.1602 8.70586 10.192 8.69269 10.2251 8.69269M10.2251 8.94269C10.2583 8.94269 10.2901 8.92952 10.3135 8.90608C10.3369 8.88263 10.3501 8.85084 10.3501 8.81769C10.3501 8.78454 10.3369 8.75274 10.3135 8.7293C10.2901 8.70586 10.2583 8.69269 10.2251 8.69269" stroke="black" stroke-linecap="round" stroke-linejoin="round"/>
</svg>
