<svg width="14" height="14" viewBox="0 0 14 14" fill="none" xmlns="http://www.w3.org/2000/svg">
<path fill-rule="evenodd" clip-rule="evenodd" d="M5.49492 0.125681C5.6281 0.0462267 5.77973 0.00295224 5.93479 0.000145777C6.08985 -0.00266069 6.24295 0.0350983 6.37892 0.109681C10.3659 1.96168 12.6229 5.80768 12.4839 9.02368C12.4239 10.3747 11.9409 11.6257 11.0039 12.5387C10.0659 13.4527 8.71892 13.9867 7.01392 13.9897C6.32484 14.0323 5.63418 13.9369 4.98245 13.7091C4.33072 13.4813 3.73104 13.1256 3.21858 12.663C2.70611 12.2004 2.29118 11.6401 1.99812 11.015C1.70505 10.3899 1.53975 9.71252 1.51192 9.02268V9.01468C1.49156 8.21501 1.69059 7.42502 2.08742 6.73045C2.48424 6.03588 3.06369 5.46325 3.76292 5.07468C3.82366 5.04096 3.89076 5.02027 3.95994 5.01392C4.02913 5.00758 4.09887 5.01572 4.16473 5.03783C4.2306 5.05994 4.29113 5.09554 4.34247 5.14234C4.39381 5.18915 4.43483 5.24614 4.46292 5.30968C4.70619 5.86171 5.04735 6.36515 5.46992 6.79568C5.96392 6.15068 6.19192 5.31768 6.18492 4.40168C6.17692 3.31168 5.83492 2.14268 5.26092 1.14768C5.16122 0.979873 5.12991 0.780138 5.17347 0.589871C5.21703 0.399603 5.33213 0.233391 5.49492 0.125681Z" fill="black"/>
</svg>
